<svg width="15" height="17" viewBox="0 0 15 17" fill="none" xmlns="http://www.w3.org/2000/svg">
<path d="M5.41839 16.1867L9.68814 10.7836C9.86385 10.5552 10.0659 10.3355 10.2943 10.1247C10.5228 9.89625 10.716 9.72054 10.8742 9.59755V9.36034C10.6458 9.37791 10.3558 9.40427 10.0044 9.43941C9.653 9.45698 9.32793 9.46576 9.02923 9.46576H0.331601V7.35725H9.02923C9.32793 7.35725 9.653 7.37482 10.0044 7.40996C10.3558 7.42753 10.6458 7.45389 10.8742 7.48903V7.25182C10.7512 7.1464 10.5755 6.97947 10.347 6.75105C10.1362 6.52263 9.91656 6.27663 9.68814 6.01307L5.41839 0.636357H8.18582L14.3005 8.41151L8.21218 16.1867H5.41839Z" fill="#7D4AB8"/>
</svg>
