<svg width="10" height="10" viewBox="0 0 10 10" fill="none" xmlns="http://www.w3.org/2000/svg">
<path d="M3.728 9.94L6.32 6.66C6.42667 6.52133 6.54933 6.388 6.688 6.26C6.82667 6.12133 6.944 6.01467 7.04 5.94V5.796C6.90133 5.80667 6.72533 5.82267 6.512 5.844C6.29867 5.85467 6.10133 5.86 5.92 5.86H0.64V4.58H5.92C6.10133 4.58 6.29867 4.59067 6.512 4.612C6.72533 4.62267 6.90133 4.63867 7.04 4.66V4.516C6.96533 4.452 6.85867 4.35067 6.72 4.212C6.592 4.07333 6.45867 3.924 6.32 3.764L3.728 0.5H5.408L9.12 5.22L5.424 9.94H3.728Z" fill="#7D4AB8"/>
</svg>
