<svg width="15" height="15" viewBox="0 0 15 15" fill="none" xmlns="http://www.w3.org/2000/svg">
<g id="Check circle">
<path id="Icon" fill-rule="evenodd" clip-rule="evenodd" d="M7.5 13.5C10.8137 13.5 13.5 10.8137 13.5 7.49998C13.5 4.18628 10.8137 1.5 7.5 1.5C4.18629 1.5 1.5 4.18628 1.5 7.49998C1.5 10.8137 4.18629 13.5 7.5 13.5ZM10.2803 6.53031C10.5732 6.23742 10.5732 5.76255 10.2803 5.46966C9.98743 5.17677 9.51256 5.17677 9.21967 5.46966L6.75 7.93932L5.78033 6.96965C5.48744 6.67676 5.01256 6.67676 4.71967 6.96965C4.42678 7.26255 4.42678 7.73742 4.71967 8.03031L6.21967 9.53031C6.51256 9.8232 6.98744 9.8232 7.28033 9.53031L10.2803 6.53031Z" fill="#7D4AB8"/>
</g>
</svg>
