<svg width="291" height="321" viewBox="0 0 291 321" fill="none" xmlns="http://www.w3.org/2000/svg">
<path d="M100 213.391L163 107.195M100 213.391L36.9998 107.195M100 213.391H226M100 213.391L163 319.58L226 213.391M100 213.391L36.9998 319.58L-25.9998 213.391M100 213.391H-25.9998M163 107.195H36.9998M163 107.195H289L226 213.391M163 107.195L226 213.391M163 107.195L226 1H100M163 107.195L100 1M36.9998 107.195L-25.9998 213.391M36.9998 107.195H-89L-25.9998 213.391M36.9998 107.195L100 1" stroke="#7D4AB8" stroke-width="1.27608"/>
</svg>
