<svg width="120" height="120" viewBox="0 0 120 120" fill="none" xmlns="http://www.w3.org/2000/svg">
<g id="Hand">
<path id="Icon" d="M35 57.5V70M35 57.5V27.5C35 23.3579 38.3579 20 42.5 20C46.6421 20 50 23.3579 50 27.5M35 57.5C35 53.3579 31.6421 50 27.5 50C23.3579 50 20 53.3579 20 57.5V67.5C20 88.2107 36.7893 105 57.5 105C78.2107 105 95 88.2107 95 67.5V42.5C95 38.3579 91.6421 35 87.5 35C83.3579 35 80 38.3579 80 42.5M50 27.5V55M50 27.5V22.5C50 18.3579 53.3579 15 57.5 15C61.6421 15 65 18.3579 65 22.5V27.5M65 27.5V55M65 27.5C65 23.3579 68.3579 20 72.5 20C76.6421 20 80 23.3579 80 27.5V42.5M80 42.5V55" stroke="#7D4AB8" stroke-width="4" stroke-linecap="round" stroke-linejoin="round"/>
</g>
</svg>
