<svg width="41" height="40" viewBox="0 0 41 40" fill="none" xmlns="http://www.w3.org/2000/svg">
<g id="Beaker">
<path id="Icon" d="M32.88 25.7137C32.4146 25.2483 31.822 24.9311 31.1767 24.8021L27.1974 24.0062C25.0169 23.5701 22.7531 23.8733 20.7642 24.8678L20.2352 25.1323C18.2462 26.1268 15.9825 26.4299 13.8019 25.9938L10.5823 25.3499C9.48944 25.1313 8.35964 25.4734 7.57156 26.2615M13.833 6.66669H27.1663L25.4997 8.33335V16.9526C25.4997 17.8367 25.8509 18.6845 26.476 19.3097L34.8093 27.643C36.9092 29.7429 35.422 33.3333 32.4523 33.3333H8.54705C5.57736 33.3333 4.09014 29.7429 6.19002 27.643L14.5234 19.3097C15.1485 18.6845 15.4997 17.8367 15.4997 16.9526V8.33335L13.833 6.66669Z" stroke="#7D4AB8" stroke-width="2" stroke-linecap="round" stroke-linejoin="round"/>
</g>
</svg>
