<svg width="52" height="52" viewBox="0 0 52 52" fill="none" xmlns="http://www.w3.org/2000/svg">
<path fill-rule="evenodd" clip-rule="evenodd" d="M46.2626 25.9909C46.2626 37.3466 37.057 46.5522 25.7014 46.5522C14.3457 46.5522 5.14014 37.3466 5.14014 25.9909C5.14014 14.6353 14.3457 5.42969 25.7014 5.42969C37.057 5.42969 46.2626 14.6353 46.2626 25.9909ZM25.7014 18.2805C24.7533 18.2805 23.9218 18.7925 23.4735 19.5674C22.7628 20.7961 21.1905 21.216 19.9618 20.5052C18.7332 19.7945 18.3133 18.2222 19.024 16.9935C20.3533 14.6956 22.8442 13.1402 25.7014 13.1402C29.9598 13.1402 33.4119 16.5922 33.4119 20.8506C33.4119 24.2078 31.2663 27.0639 28.2716 28.1224V28.5611C28.2716 29.9805 27.1209 31.1312 25.7014 31.1312C24.282 31.1312 23.1313 29.9805 23.1313 28.5611V25.9909C23.1313 24.5715 24.282 23.4208 25.7014 23.4208C27.1209 23.4208 28.2716 22.2701 28.2716 20.8506C28.2716 19.4312 27.1209 18.2805 25.7014 18.2805ZM25.7014 38.8417C27.1208 38.8417 28.2715 37.691 28.2715 36.2716C28.2715 34.8521 27.1208 33.7014 25.7014 33.7014C24.2819 33.7014 23.1312 34.8521 23.1312 36.2716C23.1312 37.691 24.2819 38.8417 25.7014 38.8417Z" fill="#7D4AB8"/>
</svg>
