<svg width="37" height="39" viewBox="0 0 37 39" fill="none" xmlns="http://www.w3.org/2000/svg">
<path fill-rule="evenodd" clip-rule="evenodd" d="M0.710449 5.47234C0.710449 2.63343 3.01185 0.332031 5.85076 0.332031H31.5523C34.3912 0.332031 36.6926 2.63343 36.6926 5.47234V26.0336C36.6926 28.8725 34.3912 31.1739 31.5523 31.1739H25.8487L26.1627 32.43L28.2295 34.4968C28.9645 35.2319 29.1844 36.3373 28.7866 37.2977C28.3888 38.2581 27.4516 38.8843 26.4121 38.8843H10.9911C9.95162 38.8843 9.01445 38.2581 8.61663 37.2977C8.21882 36.3373 8.43871 35.2319 9.17377 34.4968L11.2405 32.43L11.5546 31.1739H5.85076C3.01185 31.1739 0.710449 28.8725 0.710449 26.0336V5.47234ZM15.5436 23.4634C15.5057 23.4626 15.468 23.4626 15.4304 23.4634H5.85076V5.47234H31.5523V23.4634H21.9728C21.9352 23.4626 21.8975 23.4626 21.8597 23.4634H15.5436Z" fill="#7D4AB8"/>
</svg>
