<svg width="52" height="52" viewBox="0 0 52 52" fill="none" xmlns="http://www.w3.org/2000/svg">
<path d="M5.14014 15.904C5.14014 13.0651 7.44153 10.7637 10.2804 10.7637H25.7014C28.5403 10.7637 30.8417 13.0651 30.8417 15.904V36.4652C30.8417 39.3041 28.5403 41.6055 25.7014 41.6055H10.2804C7.44153 41.6055 5.14014 39.3041 5.14014 36.4652V15.904Z" fill="#7D4AB8"/>
<path d="M37.4028 18.7455C36.532 19.1808 35.982 20.0708 35.982 21.0443V31.3249C35.982 32.2984 36.532 33.1884 37.4028 33.6237L42.5431 36.1939C43.3398 36.5923 44.286 36.5497 45.0437 36.0814C45.8014 35.6131 46.2626 34.7858 46.2626 33.8951V18.4741C46.2626 17.5834 45.8014 16.7561 45.0437 16.2878C44.286 15.8195 43.3398 15.777 42.5431 16.1753L37.4028 18.7455Z" fill="#7D4AB8"/>
</svg>
