<svg width="52" height="53" viewBox="0 0 52 53" fill="none" xmlns="http://www.w3.org/2000/svg">
<path fill-rule="evenodd" clip-rule="evenodd" d="M7.71045 13.737C7.71045 10.8981 10.0118 8.59668 12.8508 8.59668H38.5523C41.3912 8.59668 43.6926 10.8981 43.6926 13.737V34.2982C43.6926 37.1372 41.3912 39.4385 38.5523 39.4385H32.8487L33.1627 40.6947L35.2295 42.7615C35.9645 43.4965 36.1844 44.602 35.7866 45.5624C35.3888 46.5228 34.4516 47.149 33.4121 47.149H17.9911C16.9516 47.149 16.0144 46.5228 15.6166 45.5624C15.2188 44.602 15.4387 43.4965 16.1738 42.7615L18.2405 40.6947L18.5546 39.4385H12.8508C10.0118 39.4385 7.71045 37.1372 7.71045 34.2982V13.737ZM22.5436 31.7281C22.5057 31.7272 22.468 31.7272 22.4304 31.7281H12.8508V13.737H38.5523V31.7281H28.9729C28.9352 31.7272 28.8975 31.7272 28.8597 31.7281H22.5436Z" fill="#7D4AB8"/>
</svg>
