<svg width="120" height="120" viewBox="0 0 120 120" fill="none" xmlns="http://www.w3.org/2000/svg">
<g id="Beaker">
<path id="Icon" d="M97.14 77.1409C95.7439 75.7449 93.966 74.7934 92.03 74.4062L80.0923 72.0187C73.5506 70.7103 66.7594 71.6198 60.7925 74.6033L59.2055 75.3967C53.2386 78.3802 46.4474 79.2897 39.9057 77.9813L30.2469 76.0496C26.9683 75.3939 23.5789 76.4201 21.2147 78.7843M39.999 20H79.999L74.999 25V50.8579C74.999 53.51 76.0526 56.0536 77.9279 57.9289L102.928 82.9289C109.228 89.2286 104.766 100 95.8569 100H24.1411C15.2321 100 10.7704 89.2286 17.0701 82.9289L42.0701 57.9289C43.9454 56.0536 44.999 53.51 44.999 50.8579V25L39.999 20Z" stroke="#7D4AB8" stroke-width="4" stroke-linecap="round" stroke-linejoin="round"/>
</g>
</svg>
