<svg width="85" height="85" viewBox="0 0 85 85" fill="none" xmlns="http://www.w3.org/2000/svg">
<g id="Beaker">
<path id="Icon" d="M68.807 54.6418C67.8181 53.653 66.5587 52.979 65.1875 52.7047L56.7316 51.0135C52.0979 50.0868 47.2874 50.731 43.0608 52.8443L41.9368 53.4063C37.7102 55.5196 32.8997 56.1638 28.266 55.2371L21.4244 53.8688C19.1021 53.4043 16.7012 54.1312 15.0266 55.8059M28.3321 14.167H56.6655L53.1238 17.7087V36.0246C53.1238 37.9033 53.8701 39.7049 55.1985 41.0333L72.9068 58.7417C77.3691 63.2039 74.2087 70.8337 67.8981 70.8337H17.0995C10.7889 70.8337 7.62856 63.2039 12.0908 58.7417L29.7991 41.0333C31.1275 39.7049 31.8738 37.9033 31.8738 36.0246V17.7087L28.3321 14.167Z" stroke="#7D4AB8" stroke-width="2" stroke-linecap="round" stroke-linejoin="round"/>
</g>
</svg>
