<svg width="31" height="30" viewBox="0 0 31 30" fill="none" xmlns="http://www.w3.org/2000/svg">
<path fill-rule="evenodd" clip-rule="evenodd" d="M15.5 26.9999C22.1274 26.9999 27.5 21.6274 27.5 15C27.5 8.37257 22.1274 3 15.5 3C8.87258 3 3.5 8.37257 3.5 15C3.5 21.6274 8.87258 26.9999 15.5 26.9999ZM13.5607 10.9393C12.9749 10.3535 12.0251 10.3535 11.4393 10.9393C10.8536 11.5251 10.8536 12.4748 11.4393 13.0606L13.3787 15L11.4393 16.9393C10.8536 17.5251 10.8536 18.4748 11.4393 19.0606C12.0251 19.6464 12.9749 19.6464 13.5607 19.0606L15.5 17.1213L17.4393 19.0606C18.0251 19.6464 18.9749 19.6464 19.5607 19.0606C20.1464 18.4748 20.1464 17.5251 19.5607 16.9393L17.6213 15L19.5607 13.0606C20.1464 12.4748 20.1464 11.5251 19.5607 10.9393C18.9749 10.3535 18.0251 10.3535 17.4393 10.9393L15.5 12.8786L13.5607 10.9393Z" fill="#B0B0B0"/>
</svg>
