<svg width="120" height="120" viewBox="0 0 120 120" fill="none" xmlns="http://www.w3.org/2000/svg">
<g id="Chat alt 2">
<path id="Icon" d="M85 40H95C100.523 40 105 44.4772 105 50V80C105 85.5228 100.523 90 95 90H85V110L65 90H45C42.2386 90 39.7386 88.8807 37.9289 87.0711M37.9289 87.0711L55 70H75C80.5228 70 85 65.5228 85 60V30C85 24.4772 80.5228 20 75 20H25C19.4772 20 15 24.4772 15 30V60C15 65.5228 19.4772 70 25 70H35V90L37.9289 87.0711Z" stroke="#7D4AB8" stroke-width="4" stroke-linecap="round" stroke-linejoin="round"/>
</g>
</svg>
