<svg width="21" height="21" viewBox="0 0 21 21" fill="none" xmlns="http://www.w3.org/2000/svg">
<path fill-rule="evenodd" clip-rule="evenodd" d="M18.5 10.5C18.5 14.9183 14.9183 18.5 10.5 18.5C6.08172 18.5 2.5 14.9183 2.5 10.5C2.5 6.08172 6.08172 2.5 10.5 2.5C14.9183 2.5 18.5 6.08172 18.5 10.5ZM10.5 7.5C10.1311 7.5 9.8076 7.69922 9.63318 8.00073C9.35664 8.47879 8.74491 8.64215 8.26685 8.36561C7.78879 8.08906 7.62543 7.47733 7.90197 6.99927C8.41918 6.10518 9.38833 5.5 10.5 5.5C12.1569 5.5 13.5 6.84315 13.5 8.5C13.5 9.80622 12.6652 10.9175 11.5 11.3293V11.5C11.5 12.0523 11.0523 12.5 10.5 12.5C9.94773 12.5 9.50001 12.0523 9.50001 11.5V10.5C9.50001 9.94772 9.94773 9.5 10.5 9.5C11.0523 9.5 11.5 9.05228 11.5 8.5C11.5 7.94772 11.0523 7.5 10.5 7.5ZM10.5 15.5C11.0523 15.5 11.5 15.0523 11.5 14.5C11.5 13.9477 11.0523 13.5 10.5 13.5C9.94772 13.5 9.5 13.9477 9.5 14.5C9.5 15.0523 9.94772 15.5 10.5 15.5Z" fill="#7D4AB8"/>
</svg>
