<svg width="52" height="53" viewBox="0 0 52 53" fill="none" xmlns="http://www.w3.org/2000/svg">
<path fill-rule="evenodd" clip-rule="evenodd" d="M25.7016 47.0427C37.0572 47.0427 46.2628 37.8371 46.2628 26.4814C46.2628 15.1258 37.0572 5.92017 25.7016 5.92017C14.3459 5.92017 5.14032 15.1258 5.14032 26.4814C5.14032 37.8371 14.3459 47.0427 25.7016 47.0427ZM28.2717 16.2008C28.2717 14.7813 27.121 13.6306 25.7016 13.6306C24.2821 13.6306 23.1314 14.7813 23.1314 16.2008V26.4814C23.1314 27.1631 23.4022 27.8168 23.8842 28.2988L31.1537 35.5683C32.1574 36.572 33.7847 36.572 34.7884 35.5683C35.7921 34.5646 35.7921 32.9372 34.7884 31.9335L28.2717 25.4168V16.2008Z" fill="#7D4AB8"/>
</svg>
