<svg width="85" height="85" viewBox="0 0 85 85" fill="none" xmlns="http://www.w3.org/2000/svg">
<path d="M38.9583 20.8327V68.1423C38.9583 71.5845 36.1679 74.375 32.7256 74.375C30.0916 74.375 27.742 72.7192 26.856 70.2386L19.2542 48.4602M63.75 46.0417C69.618 46.0417 74.375 41.2847 74.375 35.4167C74.375 29.5486 69.618 24.7917 63.75 24.7917M19.2542 48.4602C14.1819 46.3041 10.625 41.2757 10.625 35.4167C10.625 27.5926 16.9676 21.25 24.7916 21.25H31.2803C45.8034 21.25 58.2848 16.8792 63.75 10.625L63.75 60.2083C58.2848 53.9541 45.8034 49.5833 31.2803 49.5833L24.7916 49.5833C22.8267 49.5833 20.9552 49.1833 19.2542 48.4602Z" stroke="#7D4AB8" stroke-width="2" stroke-linecap="round" stroke-linejoin="round"/>
</svg>
