<svg width="30" height="30" viewBox="0 0 30 30" fill="none" xmlns="http://www.w3.org/2000/svg">
<path fill-rule="evenodd" clip-rule="evenodd" d="M12 5.99999C8.68627 5.99999 5.99999 8.68627 5.99999 12C5.99999 15.3137 8.68627 18 12 18C15.3137 18 18 15.3137 18 12C18 8.68627 15.3137 5.99999 12 5.99999ZM3 12C3 7.02943 7.02943 3 12 3C16.9705 3 20.9999 7.02943 20.9999 12C20.9999 13.9437 20.3838 15.7435 19.3361 17.2148L26.5606 24.4393C27.1464 25.0251 27.1464 25.9748 26.5606 26.5606C25.9748 27.1464 25.0251 27.1464 24.4393 26.5606L17.2148 19.3361C15.7435 20.3838 13.9437 20.9999 12 20.9999C7.02943 20.9999 3 16.9705 3 12Z" fill="#7D4AB8"/>
</svg>
