<svg width="60" height="60" viewBox="0 0 60 60" fill="none" xmlns="http://www.w3.org/2000/svg">
<g id="Play">
<path id="Icon" fill-rule="evenodd" clip-rule="evenodd" d="M30 54C43.2548 54 54 43.2548 54 30C54 16.7452 43.2548 6 30 6C16.7452 6 6 16.7452 6 30C6 43.2548 16.7452 54 30 54ZM28.6641 21.5039C27.7435 20.8901 26.5599 20.8329 25.5844 21.355C24.609 21.877 24 22.8936 24 24V36C24 37.1064 24.609 38.123 25.5844 38.645C26.5599 39.1671 27.7435 39.1099 28.6641 38.4962L37.6641 32.4962C38.4987 31.9398 39 31.0031 39 30C39 28.9969 38.4987 28.0603 37.6641 27.5039L28.6641 21.5039Z" fill="white"/>
</g>
</svg>
