<svg width="10" height="10" viewBox="0 0 10 10" fill="none" xmlns="http://www.w3.org/2000/svg">
<path d="M6.272 9.44L3.68 6.16C3.57333 6.02133 3.45067 5.888 3.312 5.76C3.17333 5.62133 3.056 5.51467 2.96 5.44V5.296C3.09867 5.30667 3.27467 5.32267 3.488 5.344C3.70133 5.35467 3.89867 5.36 4.08 5.36H9.36V4.08H4.08C3.89867 4.08 3.70133 4.09067 3.488 4.112C3.27467 4.12267 3.09867 4.13867 2.96 4.16V4.016C3.03467 3.952 3.14133 3.85067 3.28 3.712C3.408 3.57333 3.54133 3.424 3.68 3.264L6.272 0H4.592L0.879999 4.72L4.576 9.44H6.272Z" fill="#00C7CC"/>
</svg>
