<svg width="36" height="36" viewBox="0 0 36 36" fill="none" xmlns="http://www.w3.org/2000/svg">
<path d="M26.1209 22.1158C26.347 22.1158 26.5025 22.1865 26.5873 22.3278C26.7003 22.4409 26.7569 22.6387 26.7569 22.9214V23.6422H25.4849V22.9214C25.4849 22.667 25.5273 22.4691 25.6121 22.3278C25.7534 22.1865 25.923 22.1158 26.1209 22.1158ZM21.1603 22.1158C21.3581 22.1158 21.4995 22.1724 21.5843 22.2854C21.6973 22.3985 21.7539 22.5681 21.7539 22.7942V26.3557C21.7539 26.5818 21.7115 26.7373 21.6267 26.8221C21.5419 26.9351 21.4147 26.9917 21.2451 26.9917C21.132 26.9917 21.0189 26.9634 20.9059 26.9069C20.7646 26.8503 20.6515 26.7655 20.5667 26.6525V22.3702C20.6798 22.2572 20.7787 22.1865 20.8635 22.1582C20.92 22.13 21.0189 22.1158 21.1603 22.1158ZM18.2772 0.450195C20.7363 0.450195 23.0399 0.916579 25.1881 1.84935C27.3363 2.78211 29.2089 4.047 30.8059 5.64401C32.4029 7.24102 33.6678 9.11362 34.6006 11.2618C35.5334 13.41 35.9997 15.7137 35.9997 18.1728C35.9997 20.6319 35.5334 22.9355 34.6006 25.0837C33.6678 27.2319 32.4029 29.1116 30.8059 30.7227C29.2089 32.3339 27.3363 33.6058 25.1881 34.5386C23.0399 35.4714 20.7363 35.9377 18.2772 35.9377C15.8181 35.9377 13.5144 35.4714 11.3662 34.5386C9.21803 33.6058 7.33837 32.3339 5.72722 30.7227C4.11608 29.1116 2.84412 27.2319 1.91136 25.0837C0.97859 22.9355 0.512207 20.6319 0.512207 18.1728C0.512207 15.7137 0.97859 13.41 1.91136 11.2618C2.84412 9.11362 4.11608 7.24102 5.72722 5.64401C7.33837 4.047 9.21803 2.78211 11.3662 1.84935C13.5144 0.916579 15.8181 0.450195 18.2772 0.450195ZM13.2742 18.6392H8.27113V19.9959H9.96707V27.9668H11.5782V19.9959H13.2742V18.6392ZM13.3166 14.2297L15.4365 8.20912H13.5709L12.4686 12.3218H12.3414L11.1542 8.20912H9.33109L11.4934 14.3993V18.4696H13.3166V14.2297ZM18.0228 21.0983H16.5812V26.3133C16.5247 26.3981 16.454 26.4687 16.3692 26.5253L16.1149 26.6949C15.9453 26.7797 15.8181 26.8221 15.7333 26.8221C15.5919 26.8221 15.493 26.7938 15.4365 26.7373C15.3799 26.6807 15.3517 26.5535 15.3517 26.3557V21.0983H13.9101V26.8645C13.9101 27.2602 13.9949 27.557 14.1645 27.7548C14.3341 27.981 14.5744 28.094 14.8853 28.094C15.1397 28.094 15.4223 28.0092 15.7333 27.8396C15.9877 27.7266 16.2703 27.5146 16.5812 27.2036V27.9668H18.0228V21.0983ZM17.8956 18.6392C18.6588 18.6392 19.2382 18.4554 19.6339 18.088C20.0579 17.7488 20.2699 17.24 20.2699 16.5616V12.661C20.2699 12.1239 20.0579 11.6575 19.6339 11.2618C19.2382 10.8944 18.687 10.7106 17.9804 10.7106C17.2455 10.7106 16.666 10.8802 16.242 11.2194C15.7898 11.5586 15.5637 12.025 15.5637 12.6186V16.5616C15.5637 17.2117 15.7757 17.7205 16.1997 18.088C16.5954 18.4554 17.1607 18.6392 17.8956 18.6392ZM23.2378 22.7518C23.2378 22.1865 23.1106 21.7484 22.8562 21.4375C22.6584 21.1548 22.3192 21.0135 21.8387 21.0135C21.5843 21.0135 21.3581 21.07 21.1603 21.1831C20.9342 21.2679 20.7363 21.4233 20.5667 21.6494V18.6392H19.0827V27.9668H20.5667V27.458C20.6515 27.5711 20.7434 27.663 20.8423 27.7336C20.9412 27.8043 21.0472 27.8679 21.1603 27.9244C21.3581 28.0092 21.6125 28.0516 21.9234 28.0516C22.3474 28.0516 22.6725 27.9244 22.8986 27.67C23.1247 27.3874 23.2378 27.0199 23.2378 26.5677V22.7518ZM22.729 18.5544C23.0682 18.5544 23.3791 18.4837 23.6618 18.3424C23.9444 18.201 24.2554 17.9608 24.5946 17.6216V18.4696H26.2057V10.8802H24.5946V16.6464C24.4815 16.7878 24.3119 16.9291 24.0858 17.0704C23.9162 17.1552 23.7748 17.1976 23.6618 17.1976C23.4639 17.1976 23.3509 17.1552 23.3226 17.0704C23.2378 16.9856 23.1954 16.8584 23.1954 16.6888V10.8802H21.5843V17.24C21.5843 17.6923 21.6832 18.0173 21.8811 18.2152C22.0224 18.4413 22.305 18.5544 22.729 18.5544ZM28.2408 22.9638C28.2408 22.2854 28.0571 21.7766 27.6896 21.4375C27.3505 21.0983 26.8417 20.9287 26.1633 20.9287C25.5132 20.9287 24.9903 21.1124 24.5946 21.4799C24.1988 21.8756 24.001 22.3702 24.001 22.9638V26.0165C24.001 26.6949 24.1847 27.2178 24.5522 27.5852C24.9479 27.981 25.4567 28.1788 26.0785 28.1788C26.7851 28.1788 27.3222 27.9951 27.6896 27.6276C28.0571 27.2884 28.2408 26.7514 28.2408 26.0165V25.6773H26.7569V25.9741C26.7569 26.3981 26.7145 26.6666 26.6297 26.7797C26.5166 26.8927 26.347 26.9493 26.1209 26.9493C25.8382 26.9493 25.6686 26.8786 25.6121 26.7373C25.5273 26.6242 25.4849 26.3698 25.4849 25.9741V24.7021H28.2408V22.9638ZM17.8956 12.025C18.0935 12.025 18.2772 12.0674 18.4468 12.1522C18.5598 12.2652 18.6164 12.4066 18.6164 12.5762V16.6888C18.6164 16.9149 18.5598 17.0704 18.4468 17.1552C18.3337 17.2683 18.15 17.3248 17.8956 17.3248C17.6695 17.3248 17.514 17.2683 17.4292 17.1552C17.2879 17.0704 17.2172 16.9149 17.2172 16.6888V12.5762C17.2172 12.4348 17.2879 12.2935 17.4292 12.1522C17.5423 12.0674 17.6977 12.025 17.8956 12.025Z" fill="#7D4AB8"/>
</svg>
