<svg width="43" height="43" viewBox="0 0 43 43" fill="none" xmlns="http://www.w3.org/2000/svg">
<path fill-rule="evenodd" clip-rule="evenodd" d="M21.8561 3.53223C26.1479 3.53223 26.7731 3.55519 28.5817 3.6382C30.4609 3.72474 31.7449 4.02322 32.8682 4.45946C34.0471 4.90255 35.1151 5.5975 35.9978 6.49585C36.8962 7.37853 37.5911 8.44658 38.0342 9.62549C38.4704 10.7488 38.7689 12.0328 38.8555 13.912C38.9402 15.7965 38.9614 16.397 38.9614 21.1939V21.3351C38.9614 26.0031 38.9402 26.6107 38.8555 28.4757C38.7689 30.3549 38.4704 31.6389 38.0342 32.7622C37.5911 33.9411 36.8962 35.0092 35.9978 35.8919C35.1151 36.7902 34.0471 37.4852 32.8682 37.9282C31.7449 38.3645 30.4609 38.663 28.5817 38.7495C26.6972 38.8343 26.0967 38.8555 21.2998 38.8555H21.1585C16.4905 38.8555 15.883 38.8343 14.0179 38.7495C12.1387 38.663 10.8547 38.3645 9.73144 37.9282C8.55253 37.4852 7.48449 36.7902 6.6018 35.8919C5.70346 35.0092 5.0085 33.9411 4.56542 32.7622C4.12918 31.6389 3.8307 30.3549 3.74415 28.4757C3.66114 26.6672 3.63818 26.0402 3.63818 21.7502V20.6375C3.63818 16.3457 3.66114 15.7205 3.74415 13.912C3.8307 12.0328 4.12918 10.7488 4.56542 9.62549C5.0085 8.44658 5.70346 7.37853 6.6018 6.49585C7.48449 5.5975 8.55253 4.90255 9.73144 4.45946C10.8547 4.02322 12.1387 3.72474 14.0179 3.6382C15.8265 3.55519 16.4535 3.53223 20.7435 3.53223H21.8561ZM21.7131 6.71485H20.8865C16.5488 6.71485 15.9695 6.73428 14.1627 6.81729C12.4407 6.89677 11.5064 7.18288 10.883 7.42485C10.0582 7.74629 9.47005 8.12778 8.8519 8.74594C8.23374 9.3641 7.85225 9.95223 7.53081 10.777C7.28884 11.4005 7.00096 12.3348 6.92325 14.0568C6.84024 15.8636 6.82081 16.4429 6.82081 20.7806V21.6071C6.82081 25.9448 6.84024 26.5241 6.92325 28.3309C7.00272 30.0529 7.28884 30.9872 7.53081 31.6107C7.85225 32.4337 8.2355 33.0236 8.8519 33.6418C9.47005 34.2599 10.0582 34.6414 10.883 34.9629C11.5064 35.2048 12.4407 35.4927 14.1627 35.5704C16.0243 35.6552 16.5824 35.6729 21.2998 35.6729H21.4411C26.0278 35.6729 26.593 35.6552 28.4351 35.5704C30.1589 35.4909 31.0932 35.2048 31.7166 34.9629C32.5397 34.6414 33.1296 34.2599 33.7477 33.6418C34.3659 33.0236 34.7474 32.4355 35.0688 31.6107C35.3108 30.9872 35.5987 30.0529 35.6764 28.3309C35.7611 26.4676 35.7788 25.9113 35.7788 21.1939V21.0526C35.7788 16.4658 35.7611 15.9007 35.6764 14.0586C35.5969 12.3348 35.3108 11.4005 35.0688 10.777C34.7858 10.0098 34.3344 9.3157 33.7477 8.74594C33.1779 8.15932 32.4839 7.70789 31.7166 7.42485C31.0932 7.18288 30.1589 6.895 28.4369 6.81729C26.6301 6.73428 26.0508 6.71485 21.7131 6.71485ZM21.2998 12.1246C22.4908 12.1246 23.6701 12.3592 24.7705 12.815C25.8708 13.2707 26.8706 13.9388 27.7127 14.7809C28.5549 15.6231 29.2229 16.6229 29.6787 17.7232C30.1345 18.8235 30.3691 20.0029 30.3691 21.1939C30.3691 22.3848 30.1345 23.5642 29.6787 24.6645C29.2229 25.7648 28.5549 26.7646 27.7127 27.6068C26.8706 28.4489 25.8708 29.117 24.7705 29.5727C23.6701 30.0285 22.4908 30.2631 21.2998 30.2631C18.8945 30.2631 16.5877 29.3076 14.8869 27.6068C13.1861 25.906 12.2306 23.5992 12.2306 21.1939C12.2306 18.7885 13.1861 16.4817 14.8869 14.7809C16.5877 13.0801 18.8945 12.1246 21.2998 12.1246ZM21.2998 15.3072C19.7386 15.3072 18.2413 15.9274 17.1373 17.0314C16.0334 18.1353 15.4132 19.6326 15.4132 21.1939C15.4132 22.7551 16.0334 24.2524 17.1373 25.3563C18.2413 26.4603 19.7386 27.0805 21.2998 27.0805C22.861 27.0805 24.3583 26.4603 25.4623 25.3563C26.5662 24.2524 27.1864 22.7551 27.1864 21.1939C27.1864 19.6326 26.5662 18.1353 25.4623 17.0314C24.3583 15.9274 22.861 15.3072 21.2998 15.3072ZM30.7276 9.64668C31.2897 9.64668 31.8288 9.86997 32.2262 10.2674C32.6237 10.6649 32.847 11.204 32.847 11.7661C32.847 12.3282 32.6237 12.8673 32.2262 13.2647C31.8288 13.6622 31.2897 13.8855 30.7276 13.8855C30.1655 13.8855 29.6264 13.6622 29.2289 13.2647C28.8315 12.8673 28.6082 12.3282 28.6082 11.7661C28.6082 11.204 28.8315 10.6649 29.2289 10.2674C29.6264 9.86997 30.1655 9.64668 30.7276 9.64668Z" fill="#7D4AB8"/>
</svg>
