<svg width="36" height="36" viewBox="0 0 36 36" fill="none" xmlns="http://www.w3.org/2000/svg">
<path d="M17.9289 0.450195C20.388 0.450195 22.6916 0.916579 24.8398 1.84935C26.988 2.78211 28.8677 4.047 30.4788 5.64401C32.09 7.24102 33.3619 9.11362 34.2947 11.2618C35.2275 13.41 35.6938 15.7137 35.6938 18.1728C35.6938 20.6319 35.2275 22.9355 34.2947 25.0837C33.3619 27.2319 32.09 29.1116 30.4788 30.7227C28.8677 32.3339 26.988 33.6058 24.8398 34.5386C22.6916 35.4714 20.388 35.9377 17.9289 35.9377C15.4698 35.9377 13.1661 35.4714 11.0179 34.5386C8.86973 33.6058 6.99712 32.3339 5.40011 30.7227C3.8031 29.1116 2.53822 27.2319 1.60545 25.0837C0.672682 22.9355 0.206299 20.6319 0.206299 18.1728C0.206299 15.7137 0.672682 13.41 1.60545 11.2618C2.53822 9.11362 3.8031 7.24102 5.40011 5.64401C6.99712 4.047 8.86973 2.78211 11.0179 1.84935C13.1661 0.916579 15.4698 0.450195 17.9289 0.450195ZM12.4171 13.7633H7.96522V28.1788H12.4171V13.7633ZM10.1699 12.6186C10.7918 12.6186 11.3218 12.4066 11.7599 11.9826C12.198 11.5586 12.4171 11.0357 12.4171 10.4138C12.4171 9.792 12.198 9.26908 11.7599 8.8451C11.3218 8.42111 10.7918 8.20912 10.1699 8.20912C9.5481 8.20912 9.02519 8.42111 8.6012 8.8451C8.17722 9.26908 7.96522 9.792 7.96522 10.4138C7.96522 11.0357 8.17722 11.5586 8.6012 11.9826C9.02519 12.4066 9.5481 12.6186 10.1699 12.6186ZM27.9349 19.8263C27.9349 18.8087 27.6523 17.8124 27.0869 16.8372C26.5216 15.862 25.7867 15.1201 24.8822 14.6113C24.0625 14.159 23.1086 13.9188 22.0203 13.8905C20.9321 13.8623 19.9357 14.046 19.0312 14.4417V13.7633H14.6218V28.1788H19.0312V19.3599L20.8968 18.4696C21.1229 18.3565 21.4267 18.3 21.8083 18.3C22.1899 18.3 22.4938 18.3706 22.7199 18.512C22.8895 18.5968 23.0591 18.7805 23.2287 19.0631C23.3983 19.3458 23.4831 19.6002 23.4831 19.8263V28.1788H27.9349V19.8263Z" fill="#7D4AB8"/>
</svg>
