<svg width="43" height="43" viewBox="0 0 43 43" fill="none" xmlns="http://www.w3.org/2000/svg">
<path d="M15.0496 35.7706C28.3788 35.7706 35.6695 24.7268 35.6695 15.1506C35.6695 14.8363 35.6695 14.5237 35.6483 14.2146C37.0669 13.1876 38.2911 11.9161 39.2637 10.4597C37.9409 11.0461 36.5377 11.4307 35.1008 11.6007C36.6138 10.6947 37.7461 9.26994 38.287 7.59147C36.8647 8.4355 35.3087 9.03042 33.6861 9.35057C32.5936 8.18802 31.1482 7.4181 29.5739 7.16001C27.9995 6.90192 26.384 7.17007 24.9774 7.92293C23.5708 8.67579 22.4517 9.87137 21.7933 11.3245C21.1349 12.7777 20.974 14.4074 21.3354 15.9613C18.454 15.8169 15.6353 15.0682 13.062 13.7638C10.4888 12.4594 8.21865 10.6284 6.39893 8.38978C5.47225 9.98498 5.18838 11.8734 5.6051 13.6705C6.02182 15.4677 7.10781 17.0385 8.64195 18.0631C7.48911 18.0297 6.36119 17.7195 5.35336 17.1588V17.2506C5.35405 18.9237 5.93336 20.545 6.99306 21.8397C8.05276 23.1344 9.52763 24.0228 11.1676 24.3541C10.1005 24.645 8.98087 24.6873 7.89487 24.4778C8.35789 25.918 9.25954 27.1775 10.4737 28.08C11.6878 28.9826 13.1537 29.483 14.6663 29.5113C13.1635 30.6921 11.4427 31.5651 9.60226 32.0803C7.76182 32.5955 5.83786 32.7428 3.94043 32.5138C7.25482 34.6408 11.1114 35.769 15.0496 35.7635" fill="#7D4AB8"/>
</svg>
